<svg xmlns="http://www.w3.org/2000/svg" width="1187" height="830" viewBox="0 0 1187 830"><g fill="#127E9A" fill-rule="nonzero"><path d="M286 790Q174 790 107 692Q40 594 40 415Q40 236 107 138Q174 40 286 40Q399 40 466 138Q532 236 532 415Q532 594 466 692Q399 790 286 790ZM286 754Q357 754 382 669Q406 584 406 415Q406 245 382 160Q357 76 286 76Q215 76 190 160Q166 245 166 415Q166 584 190 669Q215 754 286 754Z"/><path d="M701 778Q694 778 688 776Q682 775 682 766V698Q682 671 706 638Q731 604 770 566Q808 527 851 484Q894 441 932 394Q971 348 996 299Q1020 250 1020 199Q1020 143 992 112Q963 82 903 82Q872 82 843 90Q814 98 796 114Q777 129 777 152Q777 165 784 177Q792 189 812 204Q833 219 833 246Q833 270 816 287Q799 304 776 304Q739 304 714 272Q689 240 689 199Q689 153 718 117Q748 81 799 60Q850 40 915 40Q982 40 1034 62Q1085 83 1115 121Q1145 159 1145 211Q1145 257 1121 301Q1097 345 1058 385Q1019 425 974 462Q928 500 885 534Q842 568 809 598Q776 629 762 656Q756 667 758 669Q761 671 771 671Q773 671 774 671H1052Q1053 671 1055 671Q1068 671 1074 669Q1081 667 1087 655Q1092 644 1100 625Q1109 606 1113 596Q1117 588 1126 587Q1135 586 1142 590Q1149 595 1146 606L1115 768Q1113 776 1106 777Q1098 778 1088 778Q1086 778 1085 778Z"/></g></svg>