<svg xmlns="http://www.w3.org/2000/svg" width="1198" height="830" viewBox="0 0 1198 830"><g fill="#127E9A" fill-rule="nonzero"><path d="M286 790Q174 790 107 692Q40 594 40 415Q40 236 107 138Q174 40 286 40Q399 40 466 138Q532 236 532 415Q532 594 466 692Q399 790 286 790ZM286 754Q357 754 382 669Q406 584 406 415Q406 245 382 161Q357 76 286 76Q215 76 190 161Q166 245 166 415Q166 584 190 669Q215 754 286 754Z"/><path d="M891 790Q797 790 740 750Q682 710 682 646Q682 609 703 590Q724 571 752 574Q778 577 790 600Q802 623 797 654Q789 701 814 725Q839 749 888 749Q928 749 960 731Q993 712 1012 667Q1032 622 1032 543Q1032 467 1014 428Q997 389 968 375Q940 360 906 360Q875 360 840 375Q806 390 776 427Q772 433 763 433H736Q733 433 730 432Q726 430 726 425V58Q726 51 730 47Q734 43 748 45Q780 49 828 51Q877 53 930 53Q982 52 1026 50Q1070 47 1093 41Q1106 38 1110 42Q1112 44 1112 47Q1111 50 1110 52Q1110 53 1110 53Q1109 54 1104 70Q1099 86 1094 104Q1088 121 1083 130Q1077 141 1066 146Q1055 150 1036 153Q1018 156 986 158Q954 159 917 159Q880 159 846 158Q813 156 790 153Q775 151 775 165V365Q775 369 778 371Q781 372 785 368Q808 348 844 333Q881 317 924 317Q988 317 1041 342Q1094 366 1126 416Q1158 465 1158 539Q1158 606 1128 663Q1099 720 1040 755Q981 790 891 790Z"/></g></svg>