<svg xmlns="http://www.w3.org/2000/svg" viewBox="0 0 400 280" role="img" aria-label="保護者の個別相談のイラスト">
  <defs>
    <linearGradient id="sky3" x1="0" y1="0" x2="0" y2="1">
      <stop offset="0" stop-color="#E8F4F9"/><stop offset="1" stop-color="#CFE9F1"/>
    </linearGradient>
  </defs>
  <rect width="400" height="280" fill="url(#sky3)"/>
  <ellipse cx="72" cy="56" rx="32" ry="14" fill="#ffffff" opacity=".85"/>
  <ellipse cx="326" cy="60" rx="30" ry="13" fill="#ffffff" opacity=".85"/>
  <path d="M0 214 Q120 178 250 208 T400 204 V280 H0 Z" fill="#C4E4CE"/>
  <path d="M0 240 Q150 214 300 240 T400 238 V280 H0 Z" fill="#A9D7BD"/>
  <!-- ハートの吹き出し -->
  <g transform="translate(200,74)">
    <ellipse cx="0" cy="0" rx="52" ry="40" fill="#ffffff"/>
    <path d="M-14 30 L2 46 L6 30 Z" fill="#ffffff"/>
    <path d="M0 12 C-10 -6 -34 -2 -34 16 C-34 32 -10 42 0 52 C10 42 34 32 34 16 C34 -2 10 -6 0 12 Z" fill="#EF9BA0"/>
  </g>
  <!-- 左：大人 -->
  <g transform="translate(132,150)">
    <path d="M-34 96 Q-34 34 0 34 Q34 34 34 96 Z" fill="#5E9FBD"/>
    <circle cx="0" cy="8" r="26" fill="#F4C9A6"/>
    <path d="M-26 4 Q-26 -22 0 -22 Q26 -22 26 4 Q18 -8 0 -8 Q-18 -8 -26 4 Z" fill="#6B5240"/>
  </g>
  <!-- 右：子ども -->
  <g transform="translate(268,168)">
    <path d="M-28 78 Q-28 30 0 30 Q28 30 28 78 Z" fill="#E4A24B"/>
    <circle cx="0" cy="8" r="22" fill="#F6D0B0"/>
    <path d="M-22 6 Q-22 -18 0 -18 Q22 -18 22 6 Q14 -6 0 -6 Q-14 -6 -22 6 Z" fill="#4A3B2C"/>
  </g>
</svg>
